<svg width="508" height="508" viewBox="0 0 508 508" fill="none" xmlns="http://www.w3.org/2000/svg">
<path d="M505 254C505 392.623 392.623 505 254 505C115.377 505 3 392.623 3 254C3 115.377 115.377 3 254 3C392.623 3 505 115.377 505 254Z" stroke="#999595" stroke-width="5"/>
<path d="M179.06 134.82C190.66 129.02 202.84 124.96 215.6 122.64C228.36 119.933 240.927 119.353 253.3 120.9C266.06 122.06 278.24 125.347 289.84 130.76C301.44 135.787 312.267 143.133 322.32 152.8C332.373 162.853 340.107 173.873 345.52 185.86C350.933 197.847 354.8 211.187 357.12 225.88C358.667 235.933 361.18 245.213 364.66 253.72C368.14 262.227 371.813 270.733 375.68 279.24C379.933 287.747 383.8 296.253 387.28 304.76C391.147 313.267 394.24 322.16 396.56 331.44C398.493 340.333 397.72 349.033 394.24 357.54C391.147 365.66 384.573 370.687 374.52 372.62C368.72 373.78 363.113 373.393 357.7 371.46C352.673 369.14 348.033 366.047 343.78 362.18C339.527 357.927 335.66 353.48 332.18 348.84C329.087 343.813 326.187 339.173 323.48 334.92C314.587 346.52 304.92 355.607 294.48 362.18C284.04 368.367 271.473 372.427 256.78 374.36C244.407 375.907 232.613 376.293 221.4 375.52C210.187 374.747 198.2 372.62 185.44 369.14C168.813 364.887 155.087 357.54 144.26 347.1C133.82 336.273 125.7 323.9 119.9 309.98C114.487 295.673 111.587 280.4 111.2 264.16C110.813 247.92 112.747 231.873 117 216.02C122.413 195.14 130.533 178.127 141.36 164.98C152.187 151.833 164.753 141.78 179.06 134.82ZM193.56 202.68C188.147 208.093 183.893 214.473 180.8 221.82C177.707 229.167 175.773 236.9 175 245.02C174.613 253.14 175.387 261.26 177.32 269.38C179.253 277.5 182.347 284.653 186.6 290.84C190.467 296.253 197.04 300.893 206.32 304.76C215.6 308.24 225.267 310.367 235.32 311.14C246.92 311.913 256.973 308.82 265.48 301.86C274.373 294.9 280.947 286.2 285.2 275.76C289.84 264.933 291.967 253.527 291.58 241.54C291.193 229.167 287.907 217.953 281.72 207.9C277.08 200.553 270.893 195.14 263.16 191.66C255.813 188.18 247.887 186.44 239.38 186.44C230.873 186.053 222.367 187.407 213.86 190.5C205.74 193.207 198.973 197.267 193.56 202.68Z" fill="#005bfb"/>
</svg>
