<svg width="512" height="512" viewBox="0 0 512 512" fill="none" xmlns="http://www.w3.org/2000/svg">
<circle cx="256" cy="256" r="256" fill="#007DC2"/>
<path d="M181.06 136.82C192.66 131.02 204.84 126.96 217.6 124.64C230.36 121.933 242.927 121.353 255.3 122.9C268.06 124.06 280.24 127.347 291.84 132.76C303.44 137.787 314.267 145.133 324.32 154.8C334.373 164.853 342.107 175.873 347.52 187.86C352.933 199.847 356.8 213.187 359.12 227.88C360.667 237.933 363.18 247.213 366.66 255.72C370.14 264.227 373.813 272.733 377.68 281.24C381.933 289.747 385.8 298.253 389.28 306.76C393.147 315.267 396.24 324.16 398.56 333.44C400.493 342.333 399.72 351.033 396.24 359.54C393.147 367.66 386.573 372.687 376.52 374.62C370.72 375.78 365.113 375.393 359.7 373.46C354.673 371.14 350.033 368.047 345.78 364.18C341.527 359.927 337.66 355.48 334.18 350.84C331.087 345.813 328.187 341.173 325.48 336.92C316.587 348.52 306.92 357.607 296.48 364.18C286.04 370.367 273.473 374.427 258.78 376.36C246.407 377.907 234.613 378.293 223.4 377.52C212.187 376.747 200.2 374.62 187.44 371.14C170.813 366.887 157.087 359.54 146.26 349.1C135.82 338.273 127.7 325.9 121.9 311.98C116.487 297.673 113.587 282.4 113.2 266.16C112.813 249.92 114.747 233.873 119 218.02C124.413 197.14 132.533 180.127 143.36 166.98C154.187 153.833 166.753 143.78 181.06 136.82ZM195.56 204.68C190.147 210.093 185.893 216.473 182.8 223.82C179.707 231.167 177.773 238.9 177 247.02C176.613 255.14 177.387 263.26 179.32 271.38C181.253 279.5 184.347 286.653 188.6 292.84C192.467 298.253 199.04 302.893 208.32 306.76C217.6 310.24 227.267 312.367 237.32 313.14C248.92 313.913 258.973 310.82 267.48 303.86C276.373 296.9 282.947 288.2 287.2 277.76C291.84 266.933 293.967 255.527 293.58 243.54C293.193 231.167 289.907 219.953 283.72 209.9C279.08 202.553 272.893 197.14 265.16 193.66C257.813 190.18 249.887 188.44 241.38 188.44C232.873 188.053 224.367 189.407 215.86 192.5C207.74 195.207 200.973 199.267 195.56 204.68Z" fill="white"/>
</svg>
